<svg width="289" height="101" viewBox="0 0 289 101" fill="none" xmlns="http://www.w3.org/2000/svg">
<path d="M13.438 93V79.084H18.3735C19.7033 79.084 20.7485 79.3901 21.5093 80.0024C22.27 80.6147 22.6504 81.4559 22.6504 82.5259C22.6504 83.2866 22.4618 83.9515 22.0845 84.5205C21.7072 85.0833 21.2031 85.4915 20.5723 85.7451C21.4196 85.9554 22.0845 86.3605 22.5669 86.9604C23.0555 87.5542 23.2998 88.284 23.2998 89.1499C23.2998 89.9168 23.1081 90.591 22.7246 91.1724C22.3473 91.7476 21.8185 92.196 21.1382 92.5176C20.4578 92.8392 19.6631 93 18.7539 93H13.438ZM15.0708 85.2256H18.3364C19.1528 85.2256 19.8053 85.0091 20.2939 84.5762C20.7887 84.1432 21.0361 83.5711 21.0361 82.8599C21.0361 82.1424 20.7856 81.5765 20.2847 81.1621C19.7837 80.7415 19.1003 80.5312 18.2344 80.5312H15.0708V85.2256ZM15.0708 91.5527H18.4014C19.0446 91.5527 19.6074 91.4445 20.0898 91.228C20.5723 91.0054 20.9495 90.6992 21.2217 90.3096C21.4938 89.9137 21.6299 89.4591 21.6299 88.9458C21.6299 88.4448 21.5 88.0088 21.2402 87.6377C20.9867 87.2666 20.6248 86.9821 20.1548 86.7842C19.6909 86.5801 19.1436 86.478 18.5127 86.478H15.0708V91.5527ZM28.1982 97.6387H26.5376L28.4858 92.9258L24.0513 83.7227H25.7305L29.2188 91.1724L32.2988 83.7227H33.9502L28.1982 97.6387Z" fill="white"/>
<path d="M10.2451 59H1.44727L24.6797 1.87109H33.668L56.8623 59H48.0645L42.3516 44.6416H15.958L10.2451 59ZM18.8145 37.2529H39.4951L29.1357 11.1641L18.8145 37.2529ZM99.5186 59H92.8916L92.625 52.8682C91.2285 55.1025 89.4004 56.8164 87.1406 58.0098C84.9062 59.1777 82.2529 59.7617 79.1807 59.7617C74.2041 59.7617 70.2686 58.251 67.374 55.2295C64.5049 52.1826 63.0703 48.0186 63.0703 42.7373V20.9141H70.8779V41.5947C70.8779 44.9717 71.792 47.6631 73.6201 49.6689C75.4482 51.6748 77.9111 52.6777 81.0088 52.6777C84.208 52.6777 86.7852 51.6113 88.7402 49.4785C90.7207 47.3203 91.7109 44.4893 91.7109 40.9854V20.9141H99.5186V59ZM118.333 59H110.525V20.9141H117.343L117.647 28.1504C118.968 25.6367 120.783 23.6816 123.094 22.2852C125.43 20.8633 128.108 20.1523 131.13 20.1523C131.866 20.1523 132.603 20.2031 133.339 20.3047C134.101 20.3809 134.862 20.5078 135.624 20.6855L134.634 27.7314C133.161 27.3506 131.714 27.1602 130.292 27.1602C127.931 27.1602 125.849 27.7314 124.046 28.874C122.243 29.9912 120.834 31.54 119.818 33.5205C118.828 35.501 118.333 37.7861 118.333 40.376V59ZM158.895 59.7617C155.086 59.7617 151.658 58.8984 148.611 57.1719C145.564 55.4453 143.165 53.0967 141.413 50.126C139.661 47.1299 138.785 43.7402 138.785 39.957C138.785 36.1992 139.661 32.835 141.413 29.8643C143.165 26.8682 145.564 24.5068 148.611 22.7803C151.658 21.0283 155.086 20.1523 158.895 20.1523C162.729 20.1523 166.156 21.0283 169.178 22.7803C172.199 24.5068 174.573 26.8682 176.3 29.8643C178.052 32.835 178.928 36.1992 178.928 39.957C178.928 43.7402 178.052 47.1299 176.3 50.126C174.573 53.0967 172.199 55.4453 169.178 57.1719C166.156 58.8984 162.729 59.7617 158.895 59.7617ZM158.856 52.7539C161.167 52.7539 163.224 52.1953 165.026 51.0781C166.854 49.9355 168.289 48.4121 169.33 46.5078C170.396 44.5781 170.93 42.3945 170.93 39.957C170.93 37.5195 170.396 35.3486 169.33 33.4443C168.289 31.5146 166.854 29.9912 165.026 28.874C163.224 27.7314 161.167 27.1602 158.856 27.1602C156.571 27.1602 154.515 27.7314 152.687 28.874C150.858 29.9912 149.411 31.5146 148.345 33.4443C147.304 35.3486 146.783 37.5195 146.783 39.957C146.783 42.3945 147.304 44.5781 148.345 46.5078C149.411 48.4121 150.858 49.9355 152.687 51.0781C154.515 52.1953 156.571 52.7539 158.856 52.7539ZM194.886 59H187.078V20.9141H193.896L194.2 28.1504C195.521 25.6367 197.336 23.6816 199.646 22.2852C201.982 20.8633 204.661 20.1523 207.683 20.1523C208.419 20.1523 209.155 20.2031 209.892 20.3047C210.653 20.3809 211.415 20.5078 212.177 20.6855L211.187 27.7314C209.714 27.3506 208.267 27.1602 206.845 27.1602C204.483 27.1602 202.401 27.7314 200.599 28.874C198.796 29.9912 197.387 31.54 196.371 33.5205C195.381 35.501 194.886 37.7861 194.886 40.376V59ZM248.815 59H242.074L241.617 54.125C240.221 55.9023 238.456 57.2861 236.323 58.2764C234.19 59.2666 231.829 59.7617 229.239 59.7617C226.522 59.7617 224.098 59.2285 221.965 58.1621C219.832 57.0957 218.156 55.6357 216.938 53.7822C215.719 51.9287 215.109 49.8213 215.109 47.46C215.109 44.9717 215.77 42.7881 217.09 40.9092C218.41 39.0049 220.213 37.5195 222.498 36.4531C224.783 35.3613 227.386 34.8154 230.306 34.8154C232.134 34.8154 233.987 35.0312 235.866 35.4629C237.771 35.8945 239.484 36.5039 241.008 37.291V35.8818C241.008 34.0283 240.525 32.4414 239.561 31.1211C238.621 29.7754 237.326 28.7471 235.676 28.0361C234.051 27.3252 232.248 26.9697 230.268 26.9697C228.516 26.9697 226.726 27.2744 224.897 27.8838C223.095 28.4932 221.394 29.4326 219.794 30.7021L217.433 24.3418C219.743 22.9707 222.143 21.9297 224.631 21.2188C227.145 20.5078 229.607 20.1523 232.02 20.1523C235.473 20.1523 238.443 20.8379 240.932 22.209C243.445 23.5801 245.388 25.5352 246.759 28.0742C248.13 30.5879 248.815 33.5586 248.815 36.9863V59ZM230.763 53.1348C232.565 53.1348 234.229 52.7666 235.752 52.0303C237.275 51.2686 238.507 50.2021 239.446 48.8311C240.411 47.4346 240.932 45.8096 241.008 43.9561V43.4229C239.713 42.458 238.253 41.709 236.628 41.1758C235.028 40.6172 233.391 40.3379 231.715 40.3379C229.15 40.3379 227.018 40.9473 225.316 42.166C223.615 43.3848 222.765 44.9463 222.765 46.8506C222.765 48.0439 223.107 49.123 223.793 50.0879C224.504 51.0273 225.456 51.7764 226.649 52.335C227.868 52.8682 229.239 53.1348 230.763 53.1348Z" fill="white"/>
<path d="M254.909 59V48.7461H256.714V59H254.909ZM259.257 59.1367C259.002 59.1367 258.797 59.0592 258.642 58.9043C258.487 58.7493 258.409 58.5465 258.409 58.2959C258.409 58.0407 258.487 57.8356 258.642 57.6807C258.797 57.5212 259.002 57.4414 259.257 57.4414C259.507 57.4414 259.71 57.5212 259.865 57.6807C260.025 57.8356 260.104 58.0407 260.104 58.2959C260.104 58.5465 260.025 58.7493 259.865 58.9043C259.71 59.0592 259.507 59.1367 259.257 59.1367ZM262.996 59H261.103L265.231 48.7461H267.152L271.274 59H269.381L268.444 56.6074H263.933L262.996 59ZM264.527 55.0283H267.85L266.188 50.7832L264.527 55.0283Z" fill="white"/>
<path d="M124.93 90.993C125.554 90.993 126.109 90.906 126.595 90.732C127.081 90.552 127.438 90.375 127.666 90.201L128.629 92.118C128.353 92.358 127.876 92.601 127.198 92.847C126.526 93.093 125.722 93.216 124.786 93.216C123.91 93.216 123.091 93.063 122.329 92.757C121.567 92.445 120.898 92.013 120.322 91.461C119.746 90.903 119.296 90.252 118.972 89.508C118.648 88.758 118.486 87.948 118.486 87.078C118.486 86.208 118.645 85.398 118.963 84.648C119.287 83.892 119.737 83.235 120.313 82.677C120.889 82.119 121.558 81.684 122.32 81.372C123.088 81.06 123.91 80.904 124.786 80.904C125.722 80.904 126.526 81.027 127.198 81.273C127.876 81.519 128.353 81.762 128.629 82.002L127.666 83.919C127.438 83.745 127.081 83.571 126.595 83.397C126.109 83.217 125.554 83.127 124.93 83.127C124.294 83.127 123.727 83.229 123.229 83.433C122.737 83.637 122.317 83.922 121.969 84.288C121.627 84.648 121.366 85.065 121.186 85.539C121.006 86.013 120.916 86.517 120.916 87.051C120.916 87.591 121.006 88.101 121.186 88.581C121.366 89.055 121.627 89.475 121.969 89.841C122.317 90.201 122.737 90.483 123.229 90.687C123.727 90.891 124.294 90.993 124.93 90.993ZM133.969 93.216C133.183 93.216 132.481 93.048 131.863 92.712C131.251 92.376 130.771 91.917 130.423 91.335C130.075 90.747 129.901 90.078 129.901 89.328C129.901 88.578 130.075 87.909 130.423 87.321C130.771 86.727 131.251 86.259 131.863 85.917C132.481 85.569 133.183 85.395 133.969 85.395C134.761 85.395 135.46 85.569 136.066 85.917C136.672 86.259 137.146 86.727 137.488 87.321C137.83 87.909 138.001 88.578 138.001 89.328C138.001 90.078 137.83 90.747 137.488 91.335C137.146 91.917 136.672 92.376 136.066 92.712C135.46 93.048 134.761 93.216 133.969 93.216ZM133.969 91.317C134.347 91.317 134.674 91.233 134.95 91.065C135.232 90.891 135.448 90.654 135.598 90.354C135.754 90.048 135.832 89.703 135.832 89.319C135.832 88.935 135.754 88.59 135.598 88.284C135.448 87.978 135.232 87.738 134.95 87.564C134.674 87.384 134.347 87.294 133.969 87.294C133.591 87.294 133.261 87.384 132.979 87.564C132.703 87.738 132.487 87.978 132.331 88.284C132.175 88.59 132.097 88.935 132.097 89.319C132.097 89.703 132.175 90.048 132.331 90.354C132.487 90.654 132.703 90.891 132.979 91.065C133.261 91.233 133.591 91.317 133.969 91.317ZM141.848 93H139.553V80.616H141.848V93ZM147.596 91.398C147.986 91.398 148.304 91.332 148.55 91.2C148.796 91.068 148.958 90.969 149.036 90.903L150.098 92.478C150.014 92.544 149.858 92.637 149.63 92.757C149.402 92.877 149.111 92.982 148.757 93.072C148.409 93.168 148.01 93.216 147.56 93.216C146.78 93.216 146.081 93.06 145.463 92.748C144.845 92.43 144.356 91.98 143.996 91.398C143.642 90.81 143.465 90.111 143.465 89.301C143.465 88.485 143.642 87.786 143.996 87.204C144.356 86.622 144.845 86.175 145.463 85.863C146.081 85.551 146.78 85.395 147.56 85.395C148.004 85.395 148.397 85.443 148.739 85.539C149.087 85.635 149.378 85.746 149.612 85.872C149.846 85.992 150.008 86.091 150.098 86.169L149.009 87.753C148.967 87.705 148.886 87.639 148.766 87.555C148.646 87.471 148.487 87.393 148.289 87.321C148.097 87.249 147.866 87.213 147.596 87.213C147.266 87.213 146.951 87.3 146.651 87.474C146.357 87.648 146.117 87.891 145.931 88.203C145.745 88.515 145.652 88.881 145.652 89.301C145.652 89.721 145.745 90.09 145.931 90.408C146.117 90.72 146.357 90.963 146.651 91.137C146.951 91.311 147.266 91.398 147.596 91.398ZM156.162 85.395C156.666 85.395 157.158 85.5 157.638 85.71C158.118 85.914 158.511 86.241 158.817 86.691C159.129 87.141 159.285 87.729 159.285 88.455V93H156.99V88.851C156.99 88.245 156.852 87.795 156.576 87.501C156.306 87.207 155.943 87.06 155.487 87.06C155.181 87.06 154.887 87.144 154.605 87.312C154.329 87.474 154.101 87.702 153.921 87.996C153.747 88.284 153.66 88.614 153.66 88.986V93H151.365V80.616H153.66V86.79C153.72 86.586 153.867 86.376 154.101 86.16C154.335 85.944 154.632 85.764 154.992 85.62C155.352 85.47 155.742 85.395 156.162 85.395ZM164.713 93.216C163.927 93.216 163.225 93.048 162.607 92.712C161.995 92.376 161.515 91.917 161.167 91.335C160.819 90.747 160.645 90.078 160.645 89.328C160.645 88.578 160.819 87.909 161.167 87.321C161.515 86.727 161.995 86.259 162.607 85.917C163.225 85.569 163.927 85.395 164.713 85.395C165.505 85.395 166.204 85.569 166.81 85.917C167.416 86.259 167.89 86.727 168.232 87.321C168.574 87.909 168.745 88.578 168.745 89.328C168.745 90.078 168.574 90.747 168.232 91.335C167.89 91.917 167.416 92.376 166.81 92.712C166.204 93.048 165.505 93.216 164.713 93.216ZM164.713 91.317C165.091 91.317 165.418 91.233 165.694 91.065C165.976 90.891 166.192 90.654 166.342 90.354C166.498 90.048 166.576 89.703 166.576 89.319C166.576 88.935 166.498 88.59 166.342 88.284C166.192 87.978 165.976 87.738 165.694 87.564C165.418 87.384 165.091 87.294 164.713 87.294C164.335 87.294 164.005 87.384 163.723 87.564C163.447 87.738 163.231 87.978 163.075 88.284C162.919 88.59 162.841 88.935 162.841 89.319C162.841 89.703 162.919 90.048 163.075 90.354C163.231 90.654 163.447 90.891 163.723 91.065C164.005 91.233 164.335 91.317 164.713 91.317ZM161.428 84.018C161.488 83.7 161.596 83.37 161.752 83.028C161.908 82.68 162.115 82.386 162.373 82.146C162.631 81.906 162.937 81.786 163.291 81.786C163.669 81.786 163.993 81.843 164.263 81.957C164.539 82.065 164.797 82.176 165.037 82.29C165.277 82.398 165.532 82.452 165.802 82.452C165.988 82.452 166.138 82.377 166.252 82.227C166.372 82.071 166.45 81.924 166.486 81.786H167.818C167.758 82.104 167.647 82.437 167.485 82.785C167.329 83.127 167.122 83.418 166.864 83.658C166.606 83.898 166.3 84.018 165.946 84.018C165.574 84.018 165.25 83.964 164.974 83.856C164.698 83.742 164.44 83.631 164.2 83.523C163.96 83.409 163.711 83.352 163.453 83.352C163.273 83.352 163.123 83.427 163.003 83.577C162.883 83.727 162.802 83.874 162.76 84.018H161.428ZM171.84 89.814C171.858 90.15 171.948 90.45 172.11 90.714C172.272 90.978 172.506 91.185 172.812 91.335C173.124 91.485 173.496 91.56 173.928 91.56C174.318 91.56 174.66 91.512 174.954 91.416C175.254 91.32 175.506 91.203 175.71 91.065C175.92 90.921 176.076 90.783 176.178 90.651L177.123 92.055C176.955 92.265 176.73 92.46 176.448 92.64C176.172 92.814 175.818 92.952 175.386 93.054C174.96 93.162 174.426 93.216 173.784 93.216C172.974 93.216 172.263 93.057 171.651 92.739C171.039 92.421 170.562 91.962 170.22 91.362C169.878 90.762 169.707 90.048 169.707 89.22C169.707 88.5 169.86 87.852 170.166 87.276C170.472 86.694 170.916 86.235 171.498 85.899C172.086 85.563 172.791 85.395 173.613 85.395C174.387 85.395 175.056 85.545 175.62 85.845C176.19 86.139 176.631 86.571 176.943 87.141C177.255 87.711 177.411 88.407 177.411 89.229C177.411 89.277 177.408 89.376 177.402 89.526C177.402 89.67 177.396 89.766 177.384 89.814H171.84ZM175.269 88.401C175.263 88.209 175.203 88.002 175.089 87.78C174.981 87.558 174.81 87.369 174.576 87.213C174.342 87.057 174.03 86.979 173.64 86.979C173.25 86.979 172.929 87.054 172.677 87.204C172.431 87.354 172.245 87.54 172.119 87.762C171.993 87.978 171.921 88.191 171.903 88.401H175.269ZM182.05 85.395C182.494 85.395 182.905 85.437 183.283 85.521C183.661 85.599 183.979 85.689 184.237 85.791C184.501 85.893 184.675 85.98 184.759 86.052L183.976 87.429C183.856 87.333 183.64 87.219 183.328 87.087C183.022 86.955 182.68 86.889 182.302 86.889C181.96 86.889 181.672 86.949 181.438 87.069C181.204 87.183 181.087 87.357 181.087 87.591C181.087 87.825 181.213 88.011 181.465 88.149C181.717 88.287 182.068 88.407 182.518 88.509C182.896 88.587 183.268 88.707 183.634 88.869C184 89.025 184.303 89.253 184.543 89.553C184.783 89.847 184.903 90.24 184.903 90.732C184.903 91.218 184.798 91.623 184.588 91.947C184.384 92.265 184.111 92.517 183.769 92.703C183.427 92.889 183.052 93.021 182.644 93.099C182.236 93.177 181.831 93.216 181.429 93.216C180.907 93.216 180.448 93.165 180.052 93.063C179.656 92.967 179.329 92.856 179.071 92.73C178.819 92.598 178.639 92.487 178.531 92.397L179.314 90.867C179.47 91.005 179.725 91.158 180.079 91.326C180.439 91.488 180.826 91.569 181.24 91.569C181.672 91.569 182.011 91.494 182.257 91.344C182.509 91.194 182.635 90.993 182.635 90.741C182.635 90.555 182.575 90.405 182.455 90.291C182.335 90.171 182.17 90.072 181.96 89.994C181.75 89.916 181.504 89.847 181.222 89.787C180.964 89.733 180.7 89.655 180.43 89.553C180.16 89.445 179.908 89.304 179.674 89.13C179.44 88.956 179.251 88.74 179.107 88.482C178.963 88.218 178.891 87.903 178.891 87.537C178.891 87.069 179.041 86.679 179.341 86.367C179.641 86.049 180.031 85.809 180.511 85.647C180.991 85.479 181.504 85.395 182.05 85.395ZM190.73 89.886C190.73 89.424 190.817 89.016 190.991 88.662C191.165 88.302 191.387 87.993 191.657 87.735C191.933 87.471 192.218 87.249 192.512 87.069C192.812 86.889 193.091 86.748 193.349 86.646C193.613 86.538 193.817 86.463 193.961 86.421C193.835 86.349 193.688 86.232 193.52 86.07C193.358 85.902 193.199 85.701 193.043 85.467C192.893 85.227 192.767 84.96 192.665 84.666C192.563 84.372 192.512 84.063 192.512 83.739C192.512 83.235 192.65 82.767 192.926 82.335C193.208 81.903 193.616 81.558 194.15 81.3C194.684 81.036 195.323 80.904 196.067 80.904C196.805 80.904 197.42 81.03 197.912 81.282C198.41 81.534 198.785 81.876 199.037 82.308C199.295 82.74 199.424 83.229 199.424 83.775C199.424 84.201 199.328 84.585 199.136 84.927C198.95 85.263 198.716 85.56 198.434 85.818C198.152 86.07 197.87 86.283 197.588 86.457C197.312 86.631 197.078 86.763 196.886 86.853L198.911 89.031C199.061 88.905 199.268 88.689 199.532 88.383C199.802 88.077 200.081 87.711 200.369 87.285L201.863 88.626C201.773 88.77 201.644 88.953 201.476 89.175C201.308 89.397 201.125 89.619 200.927 89.841C200.735 90.063 200.546 90.252 200.36 90.408L202.826 93H199.991L198.677 91.605C198.371 91.869 198.017 92.124 197.615 92.37C197.219 92.616 196.769 92.82 196.265 92.982C195.761 93.138 195.191 93.216 194.555 93.216C193.865 93.216 193.229 93.087 192.647 92.829C192.071 92.571 191.606 92.193 191.252 91.695C190.904 91.197 190.73 90.594 190.73 89.886ZM195.068 87.771C194.99 87.801 194.876 87.852 194.726 87.924C194.582 87.99 194.426 88.077 194.258 88.185C194.09 88.287 193.931 88.413 193.781 88.563C193.631 88.707 193.508 88.872 193.412 89.058C193.316 89.244 193.268 89.454 193.268 89.688C193.268 90.012 193.343 90.282 193.493 90.498C193.643 90.708 193.844 90.864 194.096 90.966C194.354 91.068 194.639 91.119 194.951 91.119C195.269 91.119 195.575 91.065 195.869 90.957C196.163 90.849 196.43 90.717 196.67 90.561C196.916 90.405 197.111 90.255 197.255 90.111L195.068 87.771ZM196.058 82.632C195.77 82.632 195.524 82.689 195.32 82.803C195.116 82.911 194.963 83.052 194.861 83.226C194.759 83.4 194.708 83.58 194.708 83.766C194.708 83.964 194.756 84.168 194.852 84.378C194.948 84.588 195.059 84.783 195.185 84.963C195.317 85.143 195.437 85.293 195.545 85.413C195.653 85.527 195.716 85.596 195.734 85.62C195.824 85.59 195.959 85.53 196.139 85.44C196.319 85.344 196.502 85.218 196.688 85.062C196.88 84.906 197.042 84.72 197.174 84.504C197.306 84.288 197.372 84.042 197.372 83.766C197.372 83.448 197.252 83.181 197.012 82.965C196.778 82.743 196.46 82.632 196.058 82.632ZM212.282 80.904C212.996 80.904 213.617 80.985 214.145 81.147C214.679 81.303 215.102 81.471 215.414 81.651C215.732 81.831 215.924 81.948 215.99 82.002L214.892 83.829C214.796 83.751 214.631 83.643 214.397 83.505C214.169 83.361 213.893 83.235 213.569 83.127C213.245 83.013 212.894 82.956 212.516 82.956C211.97 82.956 211.532 83.061 211.202 83.271C210.878 83.475 210.716 83.772 210.716 84.162C210.716 84.426 210.803 84.663 210.977 84.873C211.151 85.077 211.406 85.269 211.742 85.449C212.084 85.629 212.501 85.818 212.993 86.016C213.425 86.184 213.836 86.379 214.226 86.601C214.622 86.823 214.973 87.084 215.279 87.384C215.591 87.684 215.837 88.032 216.017 88.428C216.203 88.824 216.296 89.277 216.296 89.787C216.296 90.357 216.179 90.855 215.945 91.281C215.717 91.707 215.399 92.064 214.991 92.352C214.589 92.64 214.127 92.856 213.605 93C213.083 93.144 212.534 93.216 211.958 93.216C211.178 93.216 210.476 93.126 209.852 92.946C209.234 92.76 208.733 92.562 208.349 92.352C207.965 92.142 207.74 92.007 207.674 91.947L208.826 90.048C208.898 90.102 209.033 90.189 209.231 90.309C209.435 90.429 209.681 90.552 209.969 90.678C210.263 90.804 210.581 90.912 210.923 91.002C211.271 91.092 211.625 91.137 211.985 91.137C212.633 91.137 213.122 91.002 213.452 90.732C213.782 90.462 213.947 90.111 213.947 89.679C213.947 89.355 213.842 89.07 213.632 88.824C213.422 88.578 213.125 88.353 212.741 88.149C212.363 87.939 211.91 87.726 211.382 87.51C210.854 87.288 210.362 87.03 209.906 86.736C209.456 86.436 209.093 86.07 208.817 85.638C208.541 85.2 208.403 84.663 208.403 84.027C208.403 83.397 208.58 82.848 208.934 82.38C209.294 81.912 209.768 81.549 210.356 81.291C210.95 81.033 211.592 80.904 212.282 80.904ZM221.666 93.216C220.88 93.216 220.178 93.048 219.56 92.712C218.948 92.376 218.468 91.917 218.12 91.335C217.772 90.747 217.598 90.078 217.598 89.328C217.598 88.578 217.772 87.909 218.12 87.321C218.468 86.727 218.948 86.259 219.56 85.917C220.178 85.569 220.88 85.395 221.666 85.395C222.458 85.395 223.157 85.569 223.763 85.917C224.369 86.259 224.843 86.727 225.185 87.321C225.527 87.909 225.698 88.578 225.698 89.328C225.698 90.078 225.527 90.747 225.185 91.335C224.843 91.917 224.369 92.376 223.763 92.712C223.157 93.048 222.458 93.216 221.666 93.216ZM221.666 91.317C222.044 91.317 222.371 91.233 222.647 91.065C222.929 90.891 223.145 90.654 223.295 90.354C223.451 90.048 223.529 89.703 223.529 89.319C223.529 88.935 223.451 88.59 223.295 88.284C223.145 87.978 222.929 87.738 222.647 87.564C222.371 87.384 222.044 87.294 221.666 87.294C221.288 87.294 220.958 87.384 220.676 87.564C220.4 87.738 220.184 87.978 220.028 88.284C219.872 88.59 219.794 88.935 219.794 89.319C219.794 89.703 219.872 90.048 220.028 90.354C220.184 90.654 220.4 90.891 220.676 91.065C220.958 91.233 221.288 91.317 221.666 91.317ZM226.55 85.611H227.882V83.604C227.882 82.872 228.026 82.272 228.314 81.804C228.602 81.33 228.974 80.979 229.43 80.751C229.886 80.517 230.357 80.4 230.843 80.4C231.437 80.4 231.893 80.481 232.211 80.643C232.529 80.805 232.724 80.922 232.796 80.994L231.914 82.686C231.884 82.644 231.8 82.578 231.662 82.488C231.53 82.392 231.353 82.344 231.131 82.344C230.975 82.344 230.822 82.383 230.672 82.461C230.522 82.539 230.399 82.683 230.303 82.893C230.207 83.103 230.159 83.412 230.159 83.82V85.611H232.094V87.51H230.159V93H227.882V87.51H226.55V85.611ZM239.146 93V91.713C239.092 91.845 238.954 92.031 238.732 92.271C238.51 92.511 238.21 92.73 237.832 92.928C237.46 93.12 237.022 93.216 236.518 93.216C235.81 93.216 235.183 93.048 234.637 92.712C234.091 92.37 233.662 91.905 233.35 91.317C233.044 90.723 232.891 90.054 232.891 89.31C232.891 88.566 233.044 87.9 233.35 87.312C233.662 86.718 234.091 86.25 234.637 85.908C235.183 85.566 235.81 85.395 236.518 85.395C237.01 85.395 237.436 85.479 237.796 85.647C238.162 85.809 238.456 86.001 238.678 86.223C238.906 86.439 239.053 86.634 239.119 86.808V85.611H241.387V93H239.146ZM235.132 89.31C235.132 89.724 235.225 90.09 235.411 90.408C235.597 90.72 235.843 90.963 236.149 91.137C236.455 91.311 236.788 91.398 237.148 91.398C237.526 91.398 237.862 91.311 238.156 91.137C238.45 90.957 238.681 90.711 238.849 90.399C239.023 90.081 239.11 89.718 239.11 89.31C239.11 88.902 239.023 88.542 238.849 88.23C238.681 87.912 238.45 87.663 238.156 87.483C237.862 87.303 237.526 87.213 237.148 87.213C236.788 87.213 236.455 87.303 236.149 87.483C235.843 87.657 235.597 87.903 235.411 88.221C235.225 88.533 235.132 88.896 235.132 89.31ZM236.113 84.711L235.411 83.748L238.255 81.327L239.398 82.758L236.113 84.711ZM246.369 85.395C246.813 85.395 247.224 85.437 247.602 85.521C247.98 85.599 248.298 85.689 248.556 85.791C248.82 85.893 248.994 85.98 249.078 86.052L248.295 87.429C248.175 87.333 247.959 87.219 247.647 87.087C247.341 86.955 246.999 86.889 246.621 86.889C246.279 86.889 245.991 86.949 245.757 87.069C245.523 87.183 245.406 87.357 245.406 87.591C245.406 87.825 245.532 88.011 245.784 88.149C246.036 88.287 246.387 88.407 246.837 88.509C247.215 88.587 247.587 88.707 247.953 88.869C248.319 89.025 248.622 89.253 248.862 89.553C249.102 89.847 249.222 90.24 249.222 90.732C249.222 91.218 249.117 91.623 248.907 91.947C248.703 92.265 248.43 92.517 248.088 92.703C247.746 92.889 247.371 93.021 246.963 93.099C246.555 93.177 246.15 93.216 245.748 93.216C245.226 93.216 244.767 93.165 244.371 93.063C243.975 92.967 243.648 92.856 243.39 92.73C243.138 92.598 242.958 92.487 242.85 92.397L243.633 90.867C243.789 91.005 244.044 91.158 244.398 91.326C244.758 91.488 245.145 91.569 245.559 91.569C245.991 91.569 246.33 91.494 246.576 91.344C246.828 91.194 246.954 90.993 246.954 90.741C246.954 90.555 246.894 90.405 246.774 90.291C246.654 90.171 246.489 90.072 246.279 89.994C246.069 89.916 245.823 89.847 245.541 89.787C245.283 89.733 245.019 89.655 244.749 89.553C244.479 89.445 244.227 89.304 243.993 89.13C243.759 88.956 243.57 88.74 243.426 88.482C243.282 88.218 243.21 87.903 243.21 87.537C243.21 87.069 243.36 86.679 243.66 86.367C243.96 86.049 244.35 85.809 244.83 85.647C245.31 85.479 245.823 85.395 246.369 85.395Z" fill="#D0AB6D"/>
<path d="M42.3613 93H38.439L46.9917 71.7598H50.9707L59.5093 93H55.5869L53.647 88.0439H44.3013L42.3613 93ZM45.5332 84.7729H52.415L48.9741 75.9795L45.5332 84.7729ZM75.666 93H72.1826V85.3677C72.1826 84.2254 71.8947 83.3286 71.3188 82.6772C70.7524 82.0259 69.9642 81.7002 68.9541 81.7002C68.2461 81.7002 67.6183 81.8654 67.0708 82.1958C66.5233 82.5168 66.0938 82.9793 65.7822 83.5835C65.4707 84.1877 65.3149 84.891 65.3149 85.6934V93H61.8315V78.8398H64.7061L64.8193 81.1196C65.3291 80.2889 66.0229 79.6564 66.9009 79.2222C67.7788 78.7785 68.7795 78.5566 69.9028 78.5566C71.687 78.5566 73.0936 79.0994 74.1226 80.1851C75.1515 81.2707 75.666 82.7575 75.666 84.6455V93ZM81.061 75.0874C80.5701 75.0874 80.1548 74.9175 79.8149 74.5776C79.4845 74.2378 79.3193 73.8224 79.3193 73.3315C79.3193 72.8407 79.4845 72.4253 79.8149 72.0854C80.1548 71.7362 80.5701 71.5615 81.061 71.5615C81.5614 71.5615 81.9814 71.7362 82.3213 72.0854C82.6611 72.4253 82.8311 72.8407 82.8311 73.3315C82.8311 73.8224 82.6611 74.2378 82.3213 74.5776C81.9814 74.9175 81.5614 75.0874 81.061 75.0874ZM75.3687 100.137V97.3755C75.5197 97.4038 75.666 97.4227 75.8076 97.4321C75.9398 97.4416 76.0625 97.4463 76.1758 97.4463C77.1481 97.4463 77.9128 97.1253 78.4697 96.4834C79.0361 95.8415 79.3193 94.9588 79.3193 93.8354V78.8398H82.8169V93.9771C82.8169 96.0539 82.3543 97.6351 81.4292 98.7207C80.5135 99.8158 79.1825 100.363 77.436 100.363C77.1245 100.363 76.7941 100.34 76.4448 100.292C76.0955 100.255 75.7368 100.203 75.3687 100.137ZM93.0972 93.2832C91.6623 93.2832 90.3737 92.9622 89.2314 92.3203C88.0986 91.6784 87.2018 90.8052 86.541 89.7007C85.8896 88.5868 85.564 87.3265 85.564 85.9199C85.564 84.5133 85.8896 83.2578 86.541 82.1533C87.2018 81.0394 88.0986 80.1615 89.2314 79.5195C90.3737 78.8776 91.6623 78.5566 93.0972 78.5566C94.5415 78.5566 95.8301 78.8776 96.9629 79.5195C98.0957 80.1615 98.9831 81.0394 99.625 82.1533C100.276 83.2578 100.602 84.5133 100.602 85.9199C100.602 87.3265 100.276 88.5868 99.625 89.7007C98.9831 90.8052 98.0957 91.6784 96.9629 92.3203C95.8301 92.9622 94.5415 93.2832 93.0972 93.2832ZM93.083 90.1538C93.8382 90.1538 94.5132 89.9697 95.1079 89.6016C95.7026 89.2334 96.1699 88.7284 96.5098 88.0864C96.859 87.4445 97.0337 86.7176 97.0337 85.9058C97.0337 85.1034 96.859 84.3859 96.5098 83.7534C96.1699 83.1115 95.7026 82.6064 95.1079 82.2383C94.5132 81.8701 93.8382 81.686 93.083 81.686C92.3372 81.686 91.6623 81.8701 91.0581 82.2383C90.4634 82.6064 89.9914 83.1115 89.6421 83.7534C89.3022 84.3859 89.1323 85.1034 89.1323 85.9058C89.1323 86.7176 89.3022 87.4445 89.6421 88.0864C89.9914 88.7284 90.4634 89.2334 91.0581 89.6016C91.6623 89.9697 92.3372 90.1538 93.083 90.1538ZM102.415 91.7822L103.208 88.752C103.519 89.0635 103.906 89.3467 104.369 89.6016C104.831 89.8564 105.322 90.0594 105.841 90.2104C106.37 90.3521 106.884 90.4229 107.385 90.4229C108.055 90.4229 108.593 90.286 108.999 90.0122C109.405 89.729 109.608 89.3608 109.608 88.9077C109.608 88.549 109.485 88.2516 109.24 88.0156C108.994 87.7702 108.673 87.5578 108.277 87.3784C107.88 87.1896 107.446 87.0055 106.974 86.8262C106.351 86.5996 105.719 86.3306 105.077 86.019C104.435 85.6981 103.897 85.278 103.462 84.7588C103.038 84.2301 102.825 83.5316 102.825 82.6631C102.825 81.8229 103.038 81.096 103.462 80.4824C103.897 79.8688 104.501 79.3968 105.275 79.0664C106.049 78.7266 106.951 78.5566 107.979 78.5566C109.603 78.5566 111.222 78.9626 112.836 79.7744L111.831 82.6348C111.529 82.4082 111.161 82.2005 110.727 82.0117C110.292 81.8229 109.849 81.6719 109.396 81.5586C108.942 81.4453 108.532 81.3887 108.164 81.3887C107.625 81.3887 107.196 81.5067 106.875 81.7427C106.554 81.9787 106.394 82.2902 106.394 82.6772C106.394 82.9416 106.483 83.1823 106.663 83.3994C106.842 83.6071 107.12 83.8101 107.498 84.0083C107.876 84.2065 108.362 84.4284 108.957 84.6738C109.598 84.9193 110.24 85.2072 110.882 85.5376C111.534 85.8586 112.076 86.2881 112.511 86.8262C112.954 87.3548 113.176 88.0581 113.176 88.936C113.176 89.8045 112.94 90.5645 112.468 91.2158C112.006 91.8672 111.354 92.377 110.514 92.7451C109.683 93.1038 108.711 93.2832 107.597 93.2832C105.747 93.2832 104.019 92.7829 102.415 91.7822Z" fill="white"/>
<path d="M49 63C50.5116 63 51.8317 63.3593 52.7393 63.8887C53.6711 64.4323 54 65.0369 54 65.5C54 65.9631 53.6711 66.5677 52.7393 67.1113C51.8317 67.6407 50.5116 68 49 68C47.4884 68 46.1683 67.6407 45.2607 67.1113C44.3289 66.5677 44 65.9631 44 65.5C44 65.0369 44.3289 64.4323 45.2607 63.8887C46.1683 63.3593 47.4884 63 49 63Z" stroke="#D0AB6D" stroke-width="2"/>
<mask id="path-7-inside-1_266_108" fill="white">
<path d="M171 40C171 47.1797 165.404 53 158.5 53C151.596 53 146 47.1797 146 40C146 32.8203 151.596 27 158.5 27C165.404 27 171 32.8203 171 40ZM149.151 40C149.151 45.3696 153.337 49.7226 158.5 49.7226C163.663 49.7226 167.849 45.3696 167.849 40C167.849 34.6304 163.663 30.2774 158.5 30.2774C153.337 30.2774 149.151 34.6304 149.151 40Z"/>
</mask>
<path d="M171 40C171 47.1797 165.404 53 158.5 53C151.596 53 146 47.1797 146 40C146 32.8203 151.596 27 158.5 27C165.404 27 171 32.8203 171 40ZM149.151 40C149.151 45.3696 153.337 49.7226 158.5 49.7226C163.663 49.7226 167.849 45.3696 167.849 40C167.849 34.6304 163.663 30.2774 158.5 30.2774C153.337 30.2774 149.151 34.6304 149.151 40Z" stroke="#D0AB6D" stroke-width="4" mask="url(#path-7-inside-1_266_108)"/>
</svg>
